# xmcd
#
# Track frame offsets:
#	150
#	11732
#	23217
#	35397
#	51967
#	69005
#	83487
#	94432
#	104892
#	121917
#	139795
#	151617
#	164417
#	186097
#	199390
#	217537
#
# Disc length: 3176 seconds
#
# Revision: 4
# Processed by: cddbd v1.5.1PL2 Copyright (c) Steve Scherf et al.
# Submitted via: audiograbber 1.83.01
#
DISCID=d00c6610
DTITLE=little ma' Cissy   - Wenn's Dir gut tut !?!
DYEAR=1995
DGENRE=Country
TTITLE0=Wenn's dir gut tut
TTITLE1=Flensburg
TTITLE2=Heute Nacht mein Freund
TTITLE3=Zuhause
TTITLE4=Zeit und Geld
TTITLE5=Wir beide suchen die Sonne
TTITLE6=Mutter und Kind
TTITLE7=Du bist nicht Frau genug
TTITLE8=Ich lieb' Dich sehr
TTITLE9=Dir zuliebe
TTITLE10=Du warst 'mal mein Hauptgewinn
TTITLE11=Ich hab'genug von Dir
TTITLE12=Einer ist immer der Loser
TTITLE13=Zeig' mir den Platz
TTITLE14=Es geht mir gut
TTITLE15=Er ist ein Kerl (30-Tonner Diesel)
EXTD=
EXTT0=
EXTT1=
EXTT2=
EXTT3=
EXTT4=
EXTT5=
EXTT6=
EXTT7=
EXTT8=
EXTT9=
EXTT10=
EXTT11=
EXTT12=
EXTT13=
EXTT14=
EXTT15=
PLAYORDER=
